<svg width="80" height="80" fill="none" xmlns="http://www.w3.org/2000/svg"><path d="M13.984 1.826c-1.062.353-1.578.675-2.296 1.473-.876.95-1.22 1.963-1.22 3.558v1.212h-2.64c-2.14 0-2.828.06-3.578.276a6.276 6.276 0 0 0-3.813 3.343l-.359.752v61.504l.438.875C1.03 75.846 2 76.874 2.984 77.44c1.61.936-.703.875 37.016.875 30.64 0 34.563-.031 35.39-.246 1.797-.445 3.141-1.534 4.032-3.205l.5-.92.047-30.446c.031-33.774.125-31.228-1.016-32.823-.781-1.089-1.922-1.933-3.156-2.3-.813-.261-1.438-.307-3.625-.307h-2.64V6.857c0-1.641-.344-2.623-1.282-3.62-1.031-1.104-2.016-1.518-3.64-1.518-2.016 0-3.438.859-4.313 2.592-.406.813-.5 1.227-.578 2.377l-.078 1.38H53.156l-.062-1.503c-.078-1.748-.469-2.668-1.532-3.62-1.03-.904-1.89-1.226-3.359-1.242-1.062 0-1.39.062-2.14.43-1.782.859-2.626 2.255-2.75 4.51l-.079 1.426h-6.468l-.078-1.442c-.094-1.733-.547-2.807-1.563-3.697-1-.89-1.875-1.211-3.328-1.227-1.063 0-1.39.062-2.14.43-1.782.859-2.641 2.27-2.75 4.51l-.063 1.426H20.359l-.078-1.38c-.14-2.286-1.078-3.759-2.922-4.618-.859-.398-2.53-.521-3.375-.245Zm2.36 2.393c1.437.644 1.672 1.396 1.593 5.383-.046 2.976-.046 3.022-.468 3.635-1.032 1.55-3.203 1.504-4.297-.092-.344-.506-.36-.644-.36-3.91 0-3.222.016-3.421.36-3.989.375-.66 1.453-1.319 2.125-1.319.219 0 .687.138 1.047.292Zm16.265-.123c.657.23 1.438 1.043 1.61 1.672.078.291.156 1.871.156 3.482 0 3.435-.125 3.941-1.14 4.662-1.157.829-2.688.537-3.61-.675-.297-.398-.328-.675-.375-3.68-.063-3.544.031-4.111.703-4.786.781-.767 1.75-1.012 2.656-.675Zm16.5.046c.672.26 1.485 1.196 1.594 1.81.047.276.078 1.933.047 3.666l-.047 3.16-.437.551c-.578.737-1.172 1.028-2.11 1.028-.984 0-1.703-.46-2.172-1.38-.343-.645-.359-.875-.359-3.773 0-3.298.063-3.697.75-4.418.781-.813 1.766-1.043 2.734-.644Zm16.907.245c1.062.645 1.171 1.09 1.171 4.878 0 3.236-.015 3.374-.359 3.88-1.094 1.596-3.266 1.642-4.297.092-.422-.613-.422-.66-.468-3.635-.032-1.84.015-3.267.109-3.635.484-1.748 2.328-2.5 3.844-1.58ZM10.5 11.857c.047 1.166.14 1.657.406 2.147.547 1.028 1.219 1.687 2.25 2.194.797.383 1.14.46 2.078.46 1.485 0 2.407-.338 3.422-1.243 1.11-.981 1.516-1.932 1.625-3.711l.078-1.335h6.516v1.12c0 2.132.86 3.712 2.5 4.617.797.444.969.475 2.422.475 1.328 0 1.656-.046 2.219-.353 1.672-.874 2.562-2.377 2.672-4.524l.062-1.335h6.5l.063 1.335c.078 1.61.53 2.745 1.468 3.635 1.078 1.043 1.657 1.242 3.422 1.242 1.438 0 1.625-.03 2.406-.46 1.657-.905 2.516-2.485 2.516-4.632v-1.12h6.516l.078 1.335c.11 1.779.515 2.73 1.625 3.711 1.015.905 1.937 1.243 3.422 1.243 1.875 0 3.421-.951 4.328-2.654.265-.49.36-.981.406-2.147l.063-1.488h2.53c2.313 0 2.579.03 3.298.368.859.384 1.718 1.243 2.046 2.025.172.399.22 1.472.22 4.586v4.064H2.343v-4.064c0-3.114.047-4.187.219-4.586.328-.782 1.187-1.641 2.046-2.025.72-.337.985-.368 3.297-.368h2.532l.062 1.488Zm67.156 36.504v24.663l-.375.782a3.74 3.74 0 0 1-2.344 1.979c-1.171.353-68.703.353-69.874 0a3.74 3.74 0 0 1-2.344-1.979l-.375-.782V23.713h75.312v24.648Z"/><path d="M37.423 28.728c-4.953.614-9.64 2.93-13.078 6.473-2.953 3.052-4.938 6.886-5.672 11.012-.328 1.826-.328 5.261 0 7.194 1.39 8.206 7.719 14.954 15.953 16.994 8.797 2.193 18.078-1.196 23.172-8.497 2.563-3.666 3.797-7.592 3.781-12.117 0-5.583-2.03-10.568-5.922-14.586-1.812-1.871-3.624-3.175-6.046-4.356-3.266-1.595-6.157-2.24-9.766-2.193-1.078 0-2.156.046-2.422.076Zm5.64 2.424c7.813 1.242 14.235 7.285 15.829 14.877.312 1.503.344 1.963.344 3.911-.016 4.878-1.844 9.372-5.297 12.915-5.875 6.028-14.735 7.607-22.297 3.972-6.781-3.267-10.89-9.678-10.875-16.963 0-2.3.281-4.034.953-5.982 3.047-8.804 12.094-14.203 21.344-12.73Z"/><path d="M39.25 34.081c-.454.307-.485 1.304-.032 1.748.719.706 1.937.17 1.937-.843 0-.982-1.062-1.488-1.906-.905Z"/><path d="M31.593 36.182c-.703.737-.171 1.948.86 1.948.484 0 1.14-.644 1.14-1.12 0-1.027-1.297-1.564-2-.828Z"/><path d="M46.75 36.182c-.188.2-.344.553-.344.783 0 .521.64 1.165 1.172 1.165.516 0 1.172-.629 1.172-1.12 0-1.027-1.297-1.564-2-.828Z"/><path d="M39.172 39.173c-.234.261-.266.875-.266 5.752 0 4.601.032 5.491.235 5.675.234.23 6.406 3.773 7.156 4.11.547.246 1.281-.06 1.516-.628.359-.86.046-1.15-3.485-3.145l-3.234-1.84V44.25c0-4.494-.016-4.862-.282-5.092-.39-.353-1.328-.337-1.64.015Z"/><path d="M26.156 41.55c-.86.722-.406 1.949.719 1.949.718 0 1.093-.384 1.093-1.12 0-.414-.109-.629-.406-.859-.531-.414-.89-.399-1.406.03Z"/><path d="M52.547 41.383c-.39.184-.703.92-.562 1.319.297.797 1.437 1.104 1.968.521.422-.46.344-1.334-.14-1.702-.453-.353-.75-.384-1.266-.138Z"/><path d="M24.095 48.974c-.797.675-.281 2.04.75 2.04.672 0 1.094-.476 1.094-1.212 0-.46-.094-.675-.344-.844-.469-.322-1.11-.306-1.5.016Z"/><path d="M54.358 49.004c-.797.63-.265 2.01.781 2.01.61 0 1.11-.522 1.11-1.15 0-1.013-1.078-1.504-1.89-.86Z"/><path d="M26.297 56.26c-.39.184-.703.92-.562 1.32.297.797 1.437 1.103 1.968.52.422-.46.344-1.334-.14-1.702-.453-.353-.75-.383-1.266-.138Z"/><path d="M52.563 56.244c-1.094.537-.656 2.132.563 2.132.718 0 1.093-.383 1.093-1.104 0-.844-.89-1.396-1.656-1.028Z"/><path d="M31.593 61.95c-.703.736-.171 1.947.86 1.947.484 0 1.14-.644 1.14-1.12 0-1.027-1.297-1.564-2-.827Z"/><path d="M46.75 61.95c-.703.736-.172 1.947.859 1.947.484 0 1.14-.644 1.14-1.12 0-1.027-1.296-1.564-2-.827Z"/><path d="M39.25 63.837c-.376.26-.47 1.073-.188 1.595.172.322.938.537 1.422.383.453-.138.812-1.028.61-1.518-.266-.69-1.173-.92-1.845-.46Z"/></svg>