<svg version="1.1" id="Слой_1" xmlns="http://www.w3.org/2000/svg" x="0" y="0" viewBox="0 0 84 84" style="enable-background:new 0 0 84 84" xml:space="preserve"><path class="st0" d="M39.3 1.6c-3.9.4-5.7.7-8.6 1.5-4.6 1.3-9.4 3.8-13 6.6l-1 .8-.1-2.1c0-2.1 0-2.1-.5-2.5-.6-.5-1.3-.5-1.8 0l-.3.5v7.8l.4.4c.4.4.5.4 2.8.4h2.4l-2.1 2.1c-3.9 3.9-6.7 8.4-8.4 13.6-1.3 4-1.9 8-1.8 12.1.2 5.1 1.2 9.2 3.4 13.7C15.8 67 25.3 74.1 37 75.9c2.6.4 7.7.4 10.3-.1 4.6-.8 8-2 11.7-4.1 6-3.5 10.7-8.4 13.9-14.6 4.9-9.8 5-20.8.2-30.6-2.9-5.8-6.9-10.4-12.2-13.9C55.1 8.8 48.8 7 41.8 7c-6.4 0-12.3 1.6-17.6 4.9-1.1.7-1.4.8-1.5.6-.1-.1-.9-.2-1.9-.3h-1.7l1-.7c8.3-6 18.7-8.4 28.8-6.5 14.8 2.7 26.4 14 29.7 28.9 1 4.8 1 11-.1 16-2.5 11-9.9 20.3-20 25.3-3.6 1.8-7.1 2.8-11.1 3.5-2.6.4-7.9.4-10.4 0-4.8-.8-9-2.2-12.9-4.3-12.5-7-19.9-20-19.4-34 .2-4.2.8-7.4 2.1-11.2.9-2.4 1-3 .6-3.5s-.9-.6-1.5-.4c-.4.1-.6.4-.9 1.1-1.3 2.8-2.5 7.9-2.9 11.6-.2 2.4-.1 7 .2 9.3 2.3 15 12.6 27.4 26.8 32.1 7.5 2.5 15.1 2.8 22.9.8 6.9-1.7 13-5.2 18.2-10.4 3.3-3.3 5.6-6.6 7.6-10.5 2.8-5.8 4.1-11.1 4.1-17.7s-1.3-12.2-4.1-17.8c-6.2-12.3-18-20.5-31.8-22-2-.2-5.2-.3-6.7-.2zm1.3 12.3v4.2l.4.4c.6.5 1.2.5 1.7 0l.4-.4V9.6l1.5.1c2.1.2 5 .8 7.3 1.5 2 .7 4.6 1.8 4.6 2 0 .1-.6 1.1-1.3 2.4-1 1.7-1.3 2.4-1.3 2.8 0 1.1 1.2 1.7 2 1 .2-.1.9-1.3 1.6-2.5.9-1.5 1.4-2.3 1.6-2.3.7.1 4.6 3.3 6.5 5.5 1 1.1 3 3.8 3.1 4.1 0 .1-1 .8-2.3 1.5-1.3.8-2.5 1.5-2.6 1.7-.3.5-.3 1.2.2 1.6.6.7 1.1.5 3.7-.9 1.3-.7 2.4-1.3 2.4-1.3.2 0 1.2 2.2 1.8 3.9.8 2.3 1.5 5.5 1.7 8.1l.1 1.4h-8.4l-.3.5c-.5.5-.5 1.3 0 1.8l.4.4h8.4l-.1 1.4c-.3 3.6-1.5 8.1-3 11.1l-.5 1-2.2-1.3c-2.7-1.6-3.3-1.7-3.9-1.1-.5.5-.5 1.1-.1 1.7.2.2 1.3 1 2.6 1.7 1.2.7 2.3 1.4 2.3 1.4 0 .2-1.8 2.7-3 4.1-1.4 1.6-3.9 3.8-5.6 5l-1.3.7-1.4-2.4c-1-1.7-1.5-2.5-1.8-2.7-.8-.4-1.8.2-1.8 1.1 0 .4.3 1.2 1.3 2.9.8 1.3 1.3 2.4 1.3 2.4-.2.2-2.3 1.1-3.5 1.6-2.6 1-6.5 1.8-9 2h-.9l-.1-4.3c-.1-3.7-.1-4.3-.3-4.6-.4-.4-1-.5-1.5-.3-.8.4-.8.6-.8 5.1v4.1l-1.4-.1c-3-.3-5.7-.9-8.6-2-1.2-.5-3.2-1.3-3.4-1.5 0 0 .6-1.1 1.3-2.4 1.5-2.7 1.7-3.1 1.1-3.7-.3-.4-.5-.4-1-.4-.8 0-.9.2-2.5 2.9-.7 1.2-1.3 2.1-1.4 2.1-.1 0-.8-.5-1.7-1.1-2-1.4-5.3-4.7-6.9-6.8-.7-1-1.3-1.8-1.3-1.8s1.1-.7 2.4-1.5c1.3-.8 2.5-1.5 2.6-1.6.1-.1.2-.5.2-.8 0-.7-.6-1.3-1.2-1.3-.2 0-1.5.6-2.8 1.4l-2.4 1.4-.5-.9c-1.6-3-2.8-7.6-3.1-11.7l.1-.7h4c4.5 0 4.9-.1 5.2-.9.2-.6.1-1-.4-1.5-.3-.3-.8-.3-4.5-.3h-4.2v-1c.1-1.5.4-3.7.9-5.6.6-2.6 2.3-6.8 2.7-6.8.1 0 1.2.6 2.4 1.3 2.5 1.5 3.1 1.6 3.7 1 .4-.4.5-1.1.2-1.6-.1-.2-1.2-.9-2.6-1.7L15 24.5l.3-.5c.7-1.2 2.5-3.3 4.1-5 1.6-1.6 5-4.4 5.4-4.4.1 0 .8 1.1 1.5 2.4 1.4 2.4 1.7 2.8 2.5 2.8.4 0 1.2-.8 1.2-1.3 0-.2-.6-1.5-1.4-2.8-.8-1.4-1.4-2.5-1.4-2.5.2-.1 3-1.4 3.9-1.7 2.4-.9 6.4-1.7 8.7-1.8h.8v4.2z"/><path class="st0" d="M55.8 25.6c-.9.1-1.8.6-2.6 1.2-.3.2-3.9 4.6-8.1 9.6l-7.6 9.2-3-3c-2.7-2.6-3.1-3-3.9-3.3-4.7-1.8-9 2.9-6.7 7.3.3.7 1.6 2 5.5 5.9 2.9 2.9 5.4 5.3 5.8 5.5 1 .6 2.4.8 3.6.6 2.1-.4 1.7 0 12.1-12.6 5.2-6.3 9.6-11.8 9.9-12.2.8-1.2 1-1.7 1-3.1 0-1.2 0-1.5-.4-2.3-.9-1.9-3.2-3.1-5.6-2.8zm1.8 2.9c1.1.5 1.8 1.9 1.5 3.1-.1.5-2.2 3.2-8.9 11.3-4.8 5.9-9.2 11.1-9.6 11.7-1.2 1.5-2.3 2-3.6 1.5-.2-.1-2.8-2.5-5.6-5.3-4.5-4.5-5.2-5.3-5.4-5.9-.6-2.1 1.7-4.1 3.6-3.1.3.1 2 1.8 4 3.7 3.2 3.2 3.5 3.4 4 3.4.4 0 .7-.1 1-.5.3-.3 4-4.8 8.3-10 5.4-6.6 8-9.6 8.4-9.8.8-.4 1.6-.4 2.3-.1z"/></svg>