<svg width="28" height="28" fill="none" xmlns="http://www.w3.org/2000/svg"><path d="M22.225 5.729a11.452 11.452 0 0 0-8.178-3.395c-6.37 0-11.562 5.191-11.562 11.561 0 2.042.537 4.025 1.54 5.775l-1.633 5.997 6.125-1.61a11.564 11.564 0 0 0 5.53 1.412c6.37 0 11.561-5.192 11.561-11.562 0-3.092-1.201-5.997-3.383-8.178Zm-8.178 17.78a9.639 9.639 0 0 1-4.9-1.342l-.35-.21-3.64.957.968-3.547-.233-.362a9.641 9.641 0 0 1-1.47-5.11c0-5.296 4.316-9.613 9.613-9.613a9.512 9.512 0 0 1 6.79 2.823 9.548 9.548 0 0 1 2.812 6.802c.023 5.297-4.294 9.602-9.59 9.602Zm5.273-7.187c-.292-.14-1.715-.84-1.972-.945-.268-.093-.455-.14-.653.14-.198.292-.747.945-.91 1.132-.163.198-.338.221-.63.07-.292-.14-1.225-.455-2.322-1.435-.863-.77-1.435-1.715-1.61-2.007-.163-.292-.023-.443.129-.595.128-.128.291-.338.431-.502.14-.163.199-.291.292-.478.093-.198.047-.362-.023-.502s-.654-1.563-.887-2.146c-.233-.56-.478-.49-.653-.502h-.56c-.199 0-.502.07-.77.362-.257.291-1.004.991-1.004 2.415 0 1.423 1.039 2.8 1.179 2.986.14.199 2.041 3.115 4.935 4.364.688.303 1.225.478 1.645.606.688.222 1.318.187 1.82.117.56-.082 1.715-.7 1.948-1.377.245-.676.245-1.248.163-1.376-.081-.129-.256-.187-.548-.327Z" fill="#000"/></svg>