<svg xmlns="http://www.w3.org/2000/svg" viewBox="0 0 84 84" style="enable-background:new 0 0 84 84" xml:space="preserve"><path d="M30 4.8c-3.2.7-5.4 3.4-5.4 6.7 0 3.1 1.8 5.7 5.2 7.6l.8.4h-4.9c-5.7 0-6 0-7.2 1.3-1.2 1.2-1.2 1.4-1.2 7.4 0 2.9.1 5.4.2 5.7.3 1 1 2 1.9 2.5l.8.4v13.8l-1.5.6c-.8.3-1.6.6-1.7.6-.1 0-.3-.2-.6-.4-.2-.2-.7-.5-1-.7-.6-.3-1.1-.3-5.7-.3-5.6 0-5.8 0-6.7 1-1 1-1 .6-1 12.8 0 10.5 0 11.2.3 11.8.2.3.5.8.7 1 .9.9 1.2.9 6.5.9 3 0 5.1-.1 5.5-.2.3-.1.9-.4 1.3-.8l.7-.6 3.5 1.2 3.5 1.2h14.8c14.7 0 14.8 0 15.7-.3.5-.2 3.3-1.9 6.2-3.8 16-10.2 19.6-12.5 20.1-13 1.9-1.8 1.6-5.4-.5-7.7-1-1.1-2.1-1.6-3.5-1.6-1 0-1.2.1-2.4.7-.8.4-1.4.7-1.5.7-.1 0-.1-3.8-.1-8.5v-8.5l.4-.2c.8-.3 1.4-1 1.9-1.8l.5-.8V22.5l-.5-.8c-.5-.9-1.4-1.7-2.3-2-.3-.1-2.3-.2-6.4-.2h-5.9l.8-.4c3.4-1.9 5.2-4.5 5.2-7.6 0-3.7-2.6-6.5-6.3-6.8-3.1-.2-6.3 1.4-9.5 4.7-1.6 1.7-3.2 3.8-4.2 5.8-.4.8-.8 1.5-.8 1.5s-.3-.5-.6-1.1c-1-1.9-2.8-4.6-4.5-6.3C38 7 35.8 5.6 33.5 5c-.9-.3-2.7-.3-3.5-.2zm3.4 3C36.9 9 41 13.4 43 18.2l.5 1.2-.4.1c-.5.1-3.5-.3-5.9-.7-4.1-.8-6.6-1.8-8.3-3.5-1.2-1.2-1.7-2.3-1.7-3.7.1-3.2 3-5 6.2-3.8zm27.9 0c2 .9 2.8 3.3 1.9 5.5-.2.7-.6 1.2-1.4 1.9-1.2 1.2-2.5 1.9-4.7 2.6-2.3.7-7.3 1.6-9.2 1.6h-.6l.3-.8c1.9-4.7 6.2-9.6 9.8-10.9 1.3-.4 2.9-.4 3.9.1zM39.2 22.4c0 .1-.2.3-.5.6s-1.2 1.4-2.1 2.6c-.9 1.2-2.2 2.8-2.9 3.5-1 1-1.2 1.4-1.2 1.8 0 .7.6 1.3 1.3 1.3.5 0 .7-.1 1.7-1.1.6-.6 1.9-2.1 2.9-3.5 2.5-3.3 3.9-4.6 5.4-5.1l.3-.1v12H32.7c-12.6 0-12.2 0-12.6-.9-.1-.3-.1-1.8-.1-5.5v-5.1l.4-.4.4-.4h9.1c5.2.1 9.3.2 9.3.3zm32.7 0c.8.4.9.6.9 6v4.9l-.5.5-.5.5h-25v-6c0-4.1 0-6 .1-6s.6.2 1.1.5c1.2.6 2.4 1.8 4.4 4.5.9 1.2 2.2 2.8 2.9 3.5 1.1 1.2 1.3 1.3 1.8 1.3.8 0 1.3-.6 1.3-1.3 0-.4-.2-.7-1-1.5-.5-.5-1.8-2-2.8-3.4-1-1.3-2.1-2.7-2.4-3.1l-.6-.7h9.9c7.5.1 10.1.2 10.4.3zM44.2 45.5v8.4h-2.9c-1.7 0-3.1-.1-3.4-.2-.3-.1-2.4-1.2-4.8-2.4-2.8-1.5-4.6-2.3-5.2-2.5-1.5-.4-2.8-.2-4.9.6-.3.1-.3-.3-.3-6.1v-6.2h21.4v8.4zm25.8.7v9.1L63.2 59c-6.5 3.5-7.9 4.2-8.9 4.2h-.5l.7-.7c1.1-1.1 1.4-2 1.4-3.5 0-1.6-.3-2.4-1.4-3.6-1.2-1.3-1.9-1.5-5-1.6l-2.7-.1V37.1H70v9.1zm-38 7.4c2.4 1.3 4.7 2.4 5 2.5.4.2 2.2.2 7.6.3 6.8.1 7.1.1 7.5.4.8.6 1.1 1.1 1.1 2.1 0 .7-.1 1-.3 1.4-.4.6-3.4 2.5-4.1 2.7-.3.1-3.2.1-6.5.1h-6l-.5.5c-.6.6-.6 1.3-.1 1.8l.4.4h9.8c9.8 0 9.8 0 10.8-.4.5-.2 4.9-2.5 9.8-5.1 4.8-2.6 9.1-4.9 9.5-5.1.8-.4 1.4-.3 2.1.3 1.1 1 1.7 3 1.2 3.9-.2.3-3.8 2.8-12.4 8.3-6.7 4.3-12.5 8-13 8.2l-.8.3H24.7L21.1 75l-3.7-1.2V54.6l3.7-1.5c2-.8 4-1.6 4.2-1.7.3-.1.9-.2 1.5-.1.7 0 1.3.3 5.2 2.3zm-17.5-.4c.3.3.3 21.6 0 21.8-.3.3-9.4.3-9.6 0-.3-.3-.3-21.6 0-21.8.2-.2 9.3-.2 9.6 0z" style="fill:#208c6f"/></svg>