<svg width="80" height="80" fill="none" xmlns="http://www.w3.org/2000/svg"><path d="M16.61 1.547c-1.626.594-2.813 1.672-3.61 3.297l-.422.86-.047 8.624-.047 8.625-3.703 2.156c-4.078 2.375-4.984 3.11-5.75 4.657l-.453.937v43.594l.453.937c.594 1.204 1.781 2.391 2.985 2.985l.937.453h66.094l.937-.453c1.204-.594 2.391-1.781 2.985-2.985l.453-.937V30.703l-.453-.937c-.766-1.547-1.672-2.282-5.75-4.657l-3.703-2.172-.047-8.609-.047-8.625-.453-.937c-.594-1.204-1.781-2.391-2.985-2.985l-.937-.453-22.813-.031c-21.937-.031-22.843-.031-23.625.25Zm46.046 2.61c.844.39 1.766 1.359 2.047 2.187.188.5.219 3.343.219 15.922v15.312l-11.64 6.828c-6.407 3.766-11.876 6.922-12.173 7.016-.28.094-.922.14-1.422.11-.984-.079.25.624-17.343-9.688l-7.266-4.266V22.266c0-16.86-.047-16 .985-17.141.64-.703 1.203-1.031 2.109-1.219.36-.062 10.36-.11 22.219-.11 21.515.032 21.562.032 22.265.36ZM12.5 31.077v4.985l-3.625-2.126c-2-1.156-3.672-2.14-3.688-2.156-.156-.11.61-1.453 1.047-1.86.375-.343 5.985-3.78 6.235-3.827.015 0 .031 2.25.031 4.984Zm57.969-3.265c1.5.875 2.969 1.812 3.265 2.078.454.437 1.235 1.78 1.079 1.89-.016.032-1.688 1-3.672 2.172L67.5 36.078v-5c0-2.75.047-4.969.125-4.937.063.03 1.344.78 2.844 1.672ZM21.875 44.688c8.469 4.953 15.734 9.124 16.156 9.265 1 .344 2.922.344 3.938 0 .422-.14 7.687-4.312 16.156-9.266 8.469-4.953 15.719-9.203 16.14-9.437l.735-.438L74.969 54c-.047 19.11-.047 19.203-.375 19.906-.39.844-1.36 1.766-2.188 2.047-.906.328-63.906.328-64.812 0-.828-.281-1.797-1.203-2.188-2.047-.328-.703-.328-.797-.375-19.906L5 34.812l.734.422c.422.25 7.672 4.5 16.141 9.453Z"/><path d="M36.875 11.484c-5.578 1.25-9.844 5.266-11.438 10.797-.312 1.078-.359 1.578-.359 3.969 0 2.39.047 2.89.36 3.969 1.515 5.218 5.375 9.078 10.593 10.593 1.078.313 1.578.36 3.969.36 3.172 0 4.203-.219 6.672-1.406 2.375-1.157 3.031-2.078 2.219-3.11-.407-.515-1.36-.562-2.016-.093-.797.562-2.719 1.39-3.969 1.718-1.531.39-4 .422-5.61.063-1.483-.328-4.015-1.563-5.218-2.563-1.937-1.61-3.469-4.093-4.125-6.718-.453-1.75-.36-4.829.172-6.407 1.156-3.422 3.297-5.937 6.328-7.437 1.89-.938 3.5-1.328 5.484-1.328 2.079 0 3.547.343 5.454 1.265 1.875.906 3.203 1.969 4.359 3.485 1.86 2.437 2.594 4.75 2.64 8.312.032 2.11 0 2.39-.296 2.89-.985 1.673-3.203 1.673-4.188 0-.312-.515-.328-.859-.406-5.593-.078-4.781-.094-5.063-.375-5.281-.172-.125-.578-.219-.906-.219-.766 0-1.219.438-1.219 1.172v.562l-.719-.5c-2.343-1.609-5.953-1.672-8.328-.156-2.219 1.438-3.5 3.781-3.484 6.438 0 2.062.64 3.687 2.031 5.172 1.484 1.578 3.219 2.312 5.5 2.312 2.078 0 4-.734 5.14-1.938l.376-.39.828.828c2.547 2.61 7.093 1.734 8.343-1.578.313-.844.329-1.11.266-4.11-.047-2.703-.125-3.39-.406-4.359-1.516-5.14-5.375-9-10.5-10.5-1.516-.437-5.61-.562-7.172-.219Zm5.078 10.313c1.063.469 1.797 1.14 2.36 2.14.406.75.453.97.453 2.313 0 1.703-.266 2.375-1.328 3.438-.954.953-1.75 1.296-3.22 1.375-1.124.062-1.39.015-2.124-.313-1.172-.547-1.907-1.234-2.469-2.344-.406-.812-.469-1.125-.469-2.156 0-1.031.063-1.344.469-2.156 1.203-2.407 3.906-3.375 6.328-2.297Z"/></svg>