<svg version="1.1" id="Слой_1" xmlns="http://www.w3.org/2000/svg" xmlns:xlink="http://www.w3.org/1999/xlink" x="0" y="0" viewBox="0 0 84 84" style="enable-background:new 0 0 84 84" xml:space="preserve"><path class="st1" d="M31.6.7c-1.4.2-3.5.9-5 1.6-5.8 3-8.7 8.3-8.4 15.3.1 1.1.2 2.1.4 3.2.2.8.3 2.4.4 5.2.1 3.8.2 4.2.6 5.5 1 3.3 3.2 6.3 5.9 8.1.6.4 1.1.7 1.1.7s-.6 1.2-1.4 2.5l-1.4 2.5h-2.3c-4.5 0-7.8.9-11.2 3.2-3.6 2.5-6.5 6.6-7.6 10.7-.6 2.4-.7 5-.7 14.3v8.4l.4.3c.4.3 1.1.3 31.7.3h31.4l.3-.3c.3-.3.3-.4.3-10.8l.1-10.4-.4-1.5c-1.9-6.9-6.9-11.9-13.8-13.6-1-.3-2-.4-4.3-.4l-3-.1-1.5-2.5c-.8-1.4-1.5-2.6-1.5-2.7 0-.1.4-.4.8-.7 1-.7 3-2.8 3.8-4 .9-1.4 1.6-3 2-4.6.3-1.1.4-2 .4-4.9.1-3.3.1-3.6.5-5 .7-2.1.8-3.3.9-5.5 0-3.8-1.1-6.7-3.5-9.5C43.3 2.2 37-.1 31.6.7zm6.2 2.5c1.7.5 4.6 1.9 5.7 2.9 1.3 1.1 2.4 2.4 3.2 3.9 1.1 2 1.3 3.5 1.3 6.7v1l-.7-1.3c-1.3-2.6-2.9-4.2-5.5-5.4-2.5-1.2-5.3-1.7-8-1.4-5.3.5-10 3-12.6 6.5-.6.8-.9 1.1-.9.9-.1-.4.3-3.4.5-4.5.3-1.4 1.5-3.7 2.4-4.7C25 5.6 28.1 3.7 31 3.1c1.6-.4 5.2-.3 6.8.1zm1 8.9c3.2.9 5.7 3 6.9 6 .8 1.8.9 3 .9 7.1 0 3.1 0 3.9-.3 5-1.1 4.6-4.5 8.1-9.1 9.4-1 .3-1.6.4-3.4.4-2.1 0-2.2 0-3.8-.6-2.5-.9-4.3-2.1-5.8-3.9-1.5-1.8-2.5-4-2.9-6.4-.2-1.7-.2-7 .1-8.3.9-4.2 5.4-7.8 11.2-8.9 1.4-.2 4.9-.1 6.2.2zM41.4 44l1.4 2.4-4.3 5.6c-2.3 3.1-4.3 5.6-4.3 5.6-.1 0-8.3-10.8-8.4-11.1-.1-.1 2.4-4.7 2.7-5 0 0 .6.1 1.3.3 2.8.8 5.9.7 8.5-.1 1.1-.4 1.3-.4 1.5-.2.1 0 .8 1.2 1.6 2.5zm-12.8 9.8c2.6 3.5 4.9 6.5 5.1 6.6.8.5.9.3 6.1-6.4l4.9-6.5h1.6c.9 0 2.3.1 3.1.2 7.7.8 13.6 6.7 14.6 14.4.1.9.2 4.7.2 9.8v8.4h-9.9v-7.7c0-7.5 0-7.7-.3-8-.3-.3-1-.4-1.4-.2-.6.3-.6.8-.6 8.3v7.5H16.3v-7.7c0-6.9 0-7.7-.3-8-.3-.4-1.1-.4-1.5 0-.3.2-.3.7-.3 8v7.7H4.3v-9.4l.1-9.4.4-1.6c1.6-5.9 6.1-10.4 12-11.9 1.3-.3 2.8-.5 5.1-.5h1.9l4.8 6.4z"/><path class="st1" d="M65.8 18c-5.6.6-10.5 4.9-12.1 10.4-.5 1.7-.6 4.9-.2 6.7.5 2.6 1.8 5 3.6 6.9 2.3 2.5 5 3.9 8.3 4.5 1.6.3 4.6.1 6.1-.3C77.8 44.3 82 38.9 82 32.4c0-1-.1-2-.2-3-.6-3-2.2-5.7-4.5-7.8-2.3-2-5.1-3.3-8.2-3.6-.8-.1-1.6-.1-1.7-.1l-1.6.1zm4.9 2.5c1.3.3 3.7 1.5 4.7 2.4 1.9 1.6 3.5 4.1 4.1 6.5.4 1.6.4 4.5-.1 6.2-1.6 5.8-7.4 9.7-13.3 8.9-2.8-.5-5.1-1.6-7.1-3.6-4.9-4.9-4.8-12.7.3-17.5 1.8-1.6 3.9-2.7 6.3-3.2 1.2-.2 3.8 0 5.1.3z"/><path class="st1" d="m69.7 31-4.9 4.9-2-2c-2.2-2.2-2.5-2.4-3.2-1.7-.7.7-.5 1 2.3 3.7 1.9 1.9 2.7 2.6 3 2.6s1.7-1.3 5.8-5.4c5.8-5.8 5.8-5.9 5.1-6.6-.9-.8-1-.7-6.1 4.5z"/></svg>