<svg version="1.1" id="Слой_1" xmlns="http://www.w3.org/2000/svg" x="0" y="0" viewBox="0 0 84 84" style="enable-background:new 0 0 84 84" xml:space="preserve"><style>.st0{fill:#208c6f}</style><path class="st0" d="M31.7 1.9c-1.6.4-3 1.7-3.7 3.1-.2.4-.4 1.3-.5 1.9l-.2 1.2h-2.7c-2.5 0-2.8.1-3.2.4-.7.5-.9 1.2-.9 2.4V12h-10l-.8.4c-.5.3-.9.7-1.2 1.3l-.5.9v3.5c0 3.3 0 3.5.3 3.8.4.4 1.2.4 1.6-.1.3-.3.3-.5.4-3.6v-3.3l.4-.3c.4-.3.6-.3 5-.3h4.7v1.3c.1 1.3.1 1.3.7 1.9l.6.6h11.2c12.4 0 12 .1 12.7-.9.2-.4.3-.8.3-1.7v-1.2h4.7c2.6 0 4.8 0 4.9.1.7.3.7.6.7 8.6v7.6l-.4.1c-1.8.4-3 .8-4.4 1.5-2 1-2.9 1.7-2.9 2.4 0 .5.6 1.2 1 1.2.2 0 .8-.3 1.5-.8 2.8-1.7 4.5-2.1 7.7-2.1 2 0 2.5.1 3.6.4 3.8 1.1 6.9 3.5 8.8 6.9 1.9 3.4 2.2 7.7.9 11.5-1.2 3.4-4.1 6.6-7.4 8.1-3.2 1.4-7 1.6-10.3.5-3.6-1.2-6.5-3.8-8.2-7.1-1.1-2.3-1.4-3.5-1.4-6.2 0-2.8.3-4 1.5-6.5.5-1 .9-1.8.9-2 0-.4-.7-1-1.2-1-.8 0-1.8 1.5-2.7 4.1-2.2 6.6 0 14.1 5.8 18.4 2 1.5 4.1 2.4 6.9 3l.4.1v7.6c0 8 0 8.3-.7 8.6-.1 0-10.2.1-22.3.1-22.1 0-22.1 0-22.5-.3l-.4-.3V26.2l-.3-.3c-.4-.4-1.2-.5-1.6-.1-.5.2-.5.3-.5 26.8v26.6l.5.8c.3.6.7 1 1.2 1.3l.8.4h45.4l.8-.4c1-.5 1.7-1.3 1.9-2.3.1-.3.2-4 .2-8.2v-7.5h.8c.5 0 1.4-.1 2.1-.2 6.4-1.1 11.6-6 13.2-12.4.2-.9.3-1.8.3-3.8 0-2-.1-2.8-.3-3.8-1.6-6.5-6.8-11.3-13.2-12.4-.7-.1-1.7-.2-2.1-.2h-.8v-7.6c0-4.1-.1-7.8-.2-8.1-.2-1-.9-1.8-1.9-2.3l-.9-.5H46v-1.2c0-.9-.1-1.3-.3-1.7-.5-.8-1.1-1-4-1h-2.6l-.1-1c-.3-2.9-2.6-5.1-5.5-5.3-.6-.1-1.3 0-1.8.1zm2.6 2.3c.8.2 2 1.4 2.2 2.3.1.4.2 1.2.2 1.9 0 1.2 0 1.3.4 1.7.4.4.4.4 3.4.4h3v5.4H22.8v-5.4h3c3.9 0 3.8.1 3.9-2.2.1-1.8.4-2.6 1.3-3.4 1-.8 2.1-1 3.3-.7z"/><path class="st0" d="M27.2 24.2c-.4.4-.4 1.1 0 1.6l.3.4h11.2c7.5 0 11.4 0 11.8-.1.4-.1.6-.3.7-.6.3-.6.2-.8-.1-1.2l-.3-.4H39.2c-11.5 0-11.7 0-12 .3z"/><path class="st0" d="M15.7 30.8c-.8.4-.8 1.6-.1 2 .2.1 4.8.2 14.4.2h14l.4-.4c.5-.5.5-1.1 0-1.6l-.4-.4H30c-9.4 0-14.1.1-14.3.2z"/><path class="st0" d="M15.4 37.8c-.4.4-.4 1.2.1 1.6l.3.3h23.8l.4-.4c.5-.5.5-.9 0-1.4l-.3-.4h-12c-11.8 0-12 0-12.3.3z"/><path class="st0" d="M63.5 39.1c-.5.3-1.6 1.4-3.7 3.6-1.7 1.8-3.1 3.3-3.2 3.3-.1 0-.5-.3-1-.8-1.2-1.2-1.7-1.4-3-1.4-2.6 0-4.1 2.2-3.4 4.8.2.5.6 1.1 2.8 3.2 1.4 1.4 2.9 2.7 3.2 2.8.8.4 2.2.4 3.1 0 .5-.2 1.8-1.6 5.2-5.2 2.5-2.7 4.7-5.2 4.9-5.6.8-1.6.3-3.5-1.2-4.6-.6-.4-.8-.5-1.8-.5s-1.4.1-1.9.4zm2 2c.6.2 1 .9.9 1.5-.1.6-8.9 10-9.4 10.1-.7.1-1.2-.3-3.5-2.5-2.1-2-2.2-2.2-2.2-2.7 0-.8.4-1.2 1.1-1.3.6-.1.6 0 2 1.3 1.5 1.5 2 1.8 2.6 1.5.2-.1 1.9-1.9 3.8-3.9 1.9-2.1 3.6-3.8 3.8-3.9.2-.2.4-.2.4-.2 0-.1.2 0 .5.1z"/><path class="st0" d="M15.7 44.3c-.1 0-.3.3-.4.5-.2.4-.2.5 0 .9.1.3.3.5.5.6.2.1 4.5.2 11.1.2 10.4 0 10.9 0 11.2-.3.5-.4.5-1.3 0-1.8-.3-.3-.8-.3-11.2-.3-6.1.1-11.1.2-11.2.2z"/><path class="st0" d="M15.4 51.4c-.4.4-.4 1.2.1 1.6l.3.3h21.9l.4-.4c.5-.5.5-.9 0-1.4l-.3-.4h-11c-10.9 0-11.1 0-11.4.3z"/><path class="st0" d="M15.7 57.9c-.1 0-.3.3-.4.5-.2.4-.2.5 0 .9.1.3.3.5.5.6.2.1 4.8.2 12.1.2h11.8l.4-.4c.2-.2.4-.6.4-.8 0-.2-.2-.6-.4-.8l-.4-.4H27.9c-6.7.2-12.1.2-12.2.2z"/><path class="st0" d="M15.4 65c-.2.2-.3.5-.3.8 0 .3.1.6.3.8.3.3.4.3 17.8.3h17.5l.3-.4c.4-.5.4-.8 0-1.4l-.3-.4H33.2c-17.3 0-17.5 0-17.8.3z"/><path class="st0" d="M15.7 71.5c-.1 0-.3.3-.4.5-.2.4-.2.5 0 .9.1.3.3.5.5.6.2.1 6.8.2 17.6.2h17.4l.4-.4c.2-.2.4-.6.4-.8 0-.2-.2-.6-.4-.8l-.4-.4H33.4c-9.7.2-17.6.2-17.7.2z"/></svg>