<svg width="24" height="24" fill="none" xmlns="http://www.w3.org/2000/svg"><path d="M22.172.093c.436.117.755.305 1.101.651.352.352.535.665.652 1.124.066.249.075 1.48.075 11.217v10.936l-2.4-2.398-2.405-2.402-8.601-.01c-8.208-.014-8.611-.019-8.855-.098-.839-.286-1.476-.96-1.669-1.77C.01 17.08 0 16.072 0 9.595c0-8.154-.014-7.68.272-8.266C.436.997.98.454 1.312.29 1.903 0 1.183.018 12.024.023c8.55 0 9.924.01 10.149.07ZM4.805 6.013v1.194h14.39l.014-1.147c.005-.628 0-1.17-.014-1.204-.014-.051-1.425-.06-7.204-.051l-7.186.014v1.194ZM4.79 9.605l-.01 1.185H19.22V9.63c0-.642-.014-1.18-.033-1.195-.014-.018-3.258-.028-7.205-.023l-7.176.014-.014 1.18Zm4.818 3.597v1.194h9.61v-2.388h-9.61v1.194Z" fill="#208C6F"/></svg>