<svg version="1.1" id="Слой_1" xmlns="http://www.w3.org/2000/svg" x="0" y="0" viewBox="0 0 84 84" style="enable-background:new 0 0 84 84" xml:space="preserve"><path class="st0" d="M11.7 11.5 2 21.2v23.9c0 26.2 0 24.6.9 25.9.2.3.8.7 1.1 1 .7.4.9.4 2.7.5l2 .1.1 2c.1 1.8.1 2 .5 2.7.5.8 1.4 1.6 2.4 1.8.9.3 52.9.3 53.4 0 .8-.4 1-1.4.3-2.1l-.4-.5H38.7c-19.7 0-26.4 0-26.6-.2-.6-.3-.7-.6-.7-2.3v-1.6h12c6.6 0 12.1 0 12.3-.1.3-.1.7-.9.7-1.3 0-.2-.2-.5-.5-.8l-.5-.5h-15c-15.8 0-15.3 0-15.6-.7-.1-.3-.2-6.1-.2-23.1V23.2h7.8c7.5 0 7.8-.1 8.5-.4.9-.4 1.7-1.2 2.1-2.1.3-.7.3-1 .4-8.5V4.4h18.3c17.3.1 18.3.1 18.5.4.3.3.3 1 .4 11.1l.1 10.8.3.3c.5.6 1.4.6 1.9 0l.4-.4V11.2H65c1.3 0 1.6 0 1.9.3l.4.3.1 9.3.1 9.3.3.4c.5.5 1.4.5 1.9-.1l.4-.4V21c0-8.7 0-9.4-.3-10-.4-1-1.1-1.6-2-2-.7-.3-1-.4-2.5-.4h-1.7l-.1-1.9c-.1-1.7-.1-2-.5-2.7-.5-.9-1.5-1.8-2.4-2-.4-.1-7-.2-19.8-.2H21.5l-9.8 9.7zm8.6 8.5-.3.4H6.6l7-7 7-7V13c0 6.6 0 6.6-.3 7z"/><path class="st0" d="M49.4 7.3c-.8.4-1 1.4-.3 2.1.4.4.4.4 3.3.4h2.9v2.8c0 3 .1 3.4.8 3.8.5.3 1.1.1 1.5-.3.3-.3.3-.5.3-4.1 0-2.1 0-3.9-.1-4.1-.2-.6-.8-.7-4.5-.7-2.3-.1-3.7-.1-3.9.1z"/><path class="st0" d="M9.1 28.9c-.4.4-.5 1.2-.2 1.7.5.6.5.6 13.1.6h12.2l.5-.4c.6-.5.7-1.3.1-1.9l-.4-.4H9.5l-.4.4z"/><path class="st0" d="M49.9 28.6c-7.8 1.1-14.2 5.7-17.5 12.5-1.7 3.5-2.3 6.1-2.3 9.9 0 4.3.9 7.8 3 11.5 5.7 9.9 18.3 14 28.7 9.4l1.6-.7 5 4.9c4.6 4.6 5 5 5.9 5.3 3 1.2 6.3-.4 7.4-3.4.4-1.1.3-2.7-.1-3.9-.3-.9-.7-1.3-5.1-5.7l-4.8-4.8.7-1.2c1-1.7 1.9-4.1 2.4-6.2.4-1.6.4-2.1.4-4.9 0-3.5-.2-4.6-1.1-7.4-1.1-3.3-2.8-6.1-5.5-8.7-3.2-3.2-6.9-5.3-11.5-6.3-1.1-.3-6.1-.5-7.2-.3zm6 2.8c4.1.7 7.9 2.6 10.9 5.6 3 3 4.9 6.7 5.6 10.9.4 2.4.2 5.7-.4 8.1-1.5 6-5.8 11-11.4 13.4-8.7 3.7-18.8.9-24.2-6.8-1.6-2.2-3-5.6-3.4-8.4-.5-2.9-.1-7 .9-9.8 1.3-3.6 3.9-7.1 7-9.4 2.4-1.8 6-3.3 8.9-3.7 1.5-.2 4.5-.2 6.1.1zM79 75c.7 1.5 0 3.1-1.5 3.8-.8.4-1.5.4-2.3 0-.4-.2-2.2-1.9-5-4.7l-4.4-4.5 1.1-.8c.6-.5 1.6-1.3 2.2-2l1.1-1.1 4.4 4.3c2.6 2.8 4.3 4.6 4.4 5z"/><path class="st0" d="M63.7 40.2c-.3.1-4.2 3.4-8.8 7.3-4.5 3.9-8.3 7.1-8.5 7.3-.3.2-.5 0-2.3-1.8-2-2-2.7-2.5-3.6-2.5-.8 0-1.7.6-3 1.9-1.8 1.9-2 3-.8 4.5s7.4 7.5 8 7.8c.7.3 1.3.3 2 .1.7-.3 21.5-18.1 22-18.8.4-.7.5-1.7.1-2.4-.4-.8-2.2-2.8-2.9-3.2-.6-.6-1.5-.6-2.2-.2zm2 3.4.8.9-10.3 8.8-10.2 9-3.6-3.6-3.6-3.6.9-.9c.5-.5.9-.9 1-.9.1 0 1.2 1.1 2.6 2.4 2.7 2.7 2.8 2.7 3.8 2 .3-.3 4.4-3.7 9-7.7s8.5-7.3 8.6-7.3c.2 0 .6.4 1 .9z"/><path class="st0" d="M9.1 34.2c-.4.4-.5 1-.3 1.6.3.7.3.7 11.9.7h10.9l.5-.4c.6-.5.7-1.3.1-1.9l-.4-.4H9.5l-.4.4z"/><path class="st0" d="M9.1 39.5c-.3.3-.4.5-.4.9s.1.7.4.9l.4.4h19.2l.4-.4c.5-.5.5-1.4 0-1.9l-.4-.4H9.5l-.4.5z"/><path class="st0" d="M9.4 44.6c-.8.4-1 1.4-.3 2.1l.4.4H27l.4-.4c.6-.5.6-1.3 0-1.9l-.4-.4h-8.6c-6 .1-8.8.1-9 .2z"/><path class="st0" d="M9.4 49.9c-.8.4-1 1.4-.3 2.1l.4.4h17l.4-.4c.5-.5.5-1.2-.1-1.8l-.5-.5H18c-5.7.1-8.4.1-8.6.2z"/><path class="st0" d="M8.1 58c-.3.1-.6.4-.7.6-.1.2-.2 2-.2 4v3.6l.5.5.5.5h7.6l.5-.5c.3-.3.5-.6.5-.9 0-.3-.2-.6-.5-.9l-.5-.5H10v-2.9c0-2.8 0-2.9-.3-3.3-.5-.4-.9-.5-1.6-.2z"/></svg>