<svg width="80" height="80" fill="none" xmlns="http://www.w3.org/2000/svg"><g clip-path="url(#a)"><path d="M35.859.234c-5.938.953-11.156 3.765-15.172 8.219-2.922 3.234-5.14 8.015-6.078 13.109-.5 2.75-.563 7.14-.156 10.078.53 3.797 2.125 7.953 4.28 11.14 1.313 1.954 20.798 30.079 20.938 30.235.157.156 21.407-30.531 22.375-32.281 2.485-4.547 3.579-9.797 3.25-15.532-.515-9-4.453-16.359-11.187-20.874-3.25-2.172-6.656-3.5-10.594-4.11-1.734-.265-5.953-.25-7.656.016Zm7 2.75c7.453 1.11 13.625 5.469 16.89 11.906 3.844 7.563 3.782 17.25-.156 24.406-.64 1.157-19.718 28.766-19.86 28.719-.046-.016-4.437-6.297-9.75-13.984-6.655-9.625-9.89-14.438-10.437-15.516-3.53-7.078-3.5-15.969.079-23.313 1.734-3.546 4.218-6.39 7.53-8.593 2.923-1.953 5.923-3.078 9.876-3.688.875-.14 4.781-.093 5.828.063Z"/><path d="M37.875 16.172c-2.657.578-5.235 2.656-6.407 5.156-.921 1.953-1.093 5.016-.39 7 .844 2.406 2.562 4.36 4.734 5.39 1.531.75 2.516.97 4.188.97 1.672 0 2.656-.22 4.187-.97 2.172-1.03 3.89-2.984 4.735-5.39.453-1.297.562-3.578.234-5.062-1.125-5.078-6.125-8.22-11.281-7.094Zm3.609 2.797c3.672.875 5.875 4.687 4.781 8.234-.593 1.875-2.078 3.5-3.89 4.235-.703.28-1.188.359-2.375.359-1.75 0-2.797-.344-4.032-1.328-3.109-2.469-3.359-6.953-.562-9.75 1.625-1.64 3.844-2.266 6.078-1.75Z"/><path d="M22.266 57.453c-7.531 1-14.547 3.234-18.61 5.922-4 2.64-4.796 5.953-2.078 8.656 3.547 3.5 12 6.14 23.5 7.328 4.86.5 6.407.563 14.922.563 8.516 0 10.063-.063 14.922-.563 11.5-1.187 19.953-3.828 23.5-7.328 2.719-2.703 1.922-6.015-2.078-8.656-2.734-1.813-6.234-3.234-10.797-4.39-4.172-1.063-9.125-1.829-10.125-1.594-.469.125-.86.875-.765 1.5.125.875.546 1.078 2.968 1.422C66 61.516 72.922 63.906 75.86 66.578c.968.89 1.328 1.469 1.328 2.11 0 2.265-6.328 5.124-14.844 6.687-7.031 1.297-13.438 1.813-22.344 1.813s-15.312-.516-22.343-1.813C9.14 73.812 2.813 70.953 2.813 68.687c0-.64.36-1.218 1.328-2.109 2.937-2.672 9.86-5.062 18.25-6.266 2.703-.39 3.047-.624 2.937-2.046-.015-.125-.156-.391-.328-.578-.281-.282-.484-.344-1.297-.329-.53.016-1.171.063-1.437.094Z"/></g><defs><clipPath id="a"><path fill="#fff" d="M0 0h80v80H0z"/></clipPath></defs></svg>