<svg version="1.1" id="Слой_1" xmlns="http://www.w3.org/2000/svg" xmlns:xlink="http://www.w3.org/1999/xlink" x="0" y="0" viewBox="0 0 84 84" style="enable-background:new 0 0 84 84" xml:space="preserve"><style>.st1{fill:#208c6f;stroke:#208c6f;stroke-width:.75;stroke-miterlimit:10}</style><defs><path id="SVGID_1_" d="M2 2h80v80H2z"/></defs><clipPath id="SVGID_00000033365388685040701790000017967570555732143795_"><use xlink:href="#SVGID_1_" style="overflow:visible"/></clipPath><g style="clip-path:url(#SVGID_00000033365388685040701790000017967570555732143795_)"><path class="st1" d="M64.7 2.3c-2.9.7-5.6 2.2-7.7 4.4-1.4 1.5-2.7 3.6-2.7 4.4 0 .8 1.5 3.1 3.1 4.7 2.7 2.7 6 4.1 10.1 4.3 4.3.2 8.1-1.2 11-3.9 1.8-1.7 3.4-4.1 3.4-5.1 0-1.3-2.7-4.7-4.9-6.3-1.2-.9-3.2-1.8-4.7-2.3-1.7-.5-5.8-.6-7.6-.2zM70 4.2c1.4.4 2.8 1.8 3.6 3.3 1.9 3.8.5 8.6-3.2 10.3-.8.4-1.1.4-2.3.4-1.3 0-1.5 0-2.4-.5-2.3-1.1-3.9-3.8-3.9-6.6 0-2 .8-3.9 2.2-5.3 1.6-1.8 3.7-2.4 6-1.6zm-8.9 2.1c-1.5 2.6-1.6 6.3-.2 9.2l.5 1.1-.4-.3c-1-.6-2.4-1.8-2.9-2.5-.9-1.1-1.8-2.4-1.8-2.7 0-.4 1.1-2 2-3 .7-.7 2.8-2.4 3.1-2.4.1-.1-.1.2-.3.6zm16.1 1.1c.7.7 1.4 1.5 2 2.3l.9 1.3-.4.7c-.9 1.6-2.9 3.7-4.4 4.6l-.5.3.5-1c1.4-2.7 1.3-6.5-.1-9l-.5-.8.7.2c.3.1 1.1.8 1.8 1.4z"/><path class="st1" d="M67 7.4c-2.5.8-3.5 3.9-1.8 6.1 1 1.3 3.1 1.7 4.7 1 2.1-1 2.9-4.3 1.1-4.3-.4 0-.9.5-.9 1s-.5 1.3-.9 1.6c-.6.4-1.6.3-2.1-.1s-.9-1.1-.9-1.6c0-.9 1.1-2 2-2 .8 0 1.1-1.1.5-1.6-.4-.4-.8-.4-1.7-.1z"/><path class="st1" d="M8.5 2.9c-2.1.5-4.2 2.1-5.3 4-1.1 2-1-.5-1 33.3 0 23.5 0 30.5.2 30.6.3.3 1.1.2 1.4-.1.2-.2.2-5.2.3-30.8l.1-30.6.5-.9c.3-.9.9-1.6 1.5-2.2.7-.6 1.5-1.1 2.3-1.3.9-.3 1.2-.3 17.3-.3 18.1 0 17.1.1 17.1-1 0-.3-.1-.6-.2-.7-.2-.3-33.1-.3-34.2 0z"/><path class="st1" d="M10.9 8.6c-1.4.5-2.4 1.5-2.8 2.8-.1.5-.1 9.2-.1 34.2v33.5l.3.6c.5.9 1.2 1.5 2.1 1.9.7.3.9.3 24.7.3h24l.8-.4c.5-.3 1-.6 1.3-1 .8-1 1-1.7 1-4 0-2.1-.1-2.4-.9-2.4s-1 .4-1 2.3c0 1.5 0 1.8-.3 2.4-.2.4-.5.7-.9 1l-.5.3H35.3c-26 0-24.2.1-25-1.1l-.5-.6V12.1l.4-.5c.2-.3.5-.6.9-.9l.5-.4h31.6v14.8l.4.6c.2.4.6.7 1 .9.6.3 1 .3 8.3.3h7.6v3.9c0 4.3.1 4.6.9 4.6.9 0 .9 0 .9-5.1v-4.6l-7-6.8c-3.8-3.7-7.8-7.6-8.8-8.6l-1.8-1.7H28.2c-13.3-.2-16.8-.1-17.3 0zm44.6 12.8 3.6 3.5h-6.7c-6 0-6.7 0-7-.2-.3-.2-.3-.7-.3-6.8v-6.5l3.4 3.3c1.9 1.7 5 4.8 7 6.7z"/><path class="st1" d="M13.8 17.1c-.4.3-.5 1-.1 1.4.2.2 1 .2 6.2.2h6l.2-.4c.3-.5.2-1.1-.3-1.3-.2-.1-2.8-.2-6-.2-4.9.1-5.7.1-6 .3z"/><path class="st1" d="M13.7 24c-.3.4-.3 1 0 1.3.3.2 1 .3 7.9.3h7.6l.2-.3c.3-.5.3-.8-.1-1.2-.3-.3-.5-.3-7.8-.3-7.1-.1-7.6-.1-7.8.2z"/><path class="st1" d="M32 24c-.3.4-.3 1 0 1.3.2.2.5.2 1.3.2 1.2 0 1.6-.2 1.6-.9s-.4-1-1.6-1c-.9.1-1.2.2-1.3.4z"/><path class="st1" d="M25.8 30.2c-.4.2-.4.3-.4 4.7 0 4.2 0 4.5.3 4.7.3.2.8.3 4.6.3 5.1 0 5 0 4.9-1.3-.1-3.8-2.8-7.2-6.4-8.2-1.3-.4-2.6-.5-3-.2zm3.4 2.3c1.8.8 3.3 2.4 3.9 4.2.1.4.3.8.3 1.2 0 .2-.6.2-3 .2h-3V32l.6.1c.4.1.8.2 1.2.4z"/><path class="st1" d="M39.1 32.1c-.5.3-.5 1.2 0 1.5.2.1 2.4.2 6.1.2s5.9-.1 6.1-.2c.2-.1.3-.3.3-.7 0-1 0-1-6.4-1-5-.1-5.8 0-6.1.2z"/><path class="st1" d="M54 32.1c-.5.3-.5 1.2 0 1.5.2.1.8.2 1.4.2.8 0 1.1-.1 1.3-.3.1-.1.1-.2.2-.3 0-.1.1-.2.1-.4 0-.1 0-.2-.1-.3-.1-.1-.1-.2-.2-.3-.4-.5-2.1-.5-2.7-.1z"/><path class="st1" d="M19.9 34.3c-1.5.4-2.6 1.1-3.8 2.4-1.4 1.3-1.9 2.3-2.3 4-.8 3.2 0 6.3 2.3 8.7 1.8 1.8 3.8 2.6 6.3 2.6 1.6 0 2.6-.2 4-.9 2.3-1.1 4.3-3.7 4.8-6.1.2-1.1.2-2.4 0-2.7-.1-.1-1.2-.2-4-.2h-3.8v-3.6c0-4.5 0-4.4-1.5-4.4-.6 0-1.3 0-2 .2zm1.7 5.4c0 2.7 0 3.8.2 4 .1.1 1.2.2 4 .2 2.2 0 3.8.1 3.8.1-.1.4-.2.7-.3 1.1-.3.9-.8 1.8-1.4 2.5-.6.7-1.4 1.3-2.3 1.8-.9.4-1.8.7-2.8.7-1 0-2-.1-2.9-.5-.9-.4-1.7-.9-2.4-1.6-.7-.7-1.2-1.5-1.6-2.4-.4-.9-.5-1.9-.5-2.9s.3-1.9.7-2.8c.8-1.7 2.3-3 4-3.6 1.6-.6 1.5-1 1.5 3.4z"/><path class="st1" d="M61.2 38.5c-.2.1-.4.2-.6.4-.1.2-.2.5-.2.7 0 .3.1.5.2.7.1.2.4.4.6.4.5.2 1.2-.2 1.4-.7.4-.8-.5-1.8-1.4-1.5z"/><path class="st1" d="M39 38.9c-.2.2-.3.4-.2.7 0 1-.4.9 9.1.9 8.2 0 8.6 0 8.9-.3.3-.4.3-1 0-1.3-.3-.2-1.1-.3-8.9-.3-7.7.1-8.7.1-8.9.3z"/><path class="st1" d="M55.7 45.6c-3 .7-5.6 2.5-7.2 5.1-1.6 2.4-2.2 4.6-2.1 7.6.2 5.4 3.6 9.6 8.8 11.3 1 .3 1.5.4 3.4.4 3.1 0 4.9-.5 7.2-2.2l1-.7 1 1 1 1-.3.6c-.7 1.3-.7 3.3 0 4.7.2.3 1.5 1.8 2.8 3.2 3 3 3.6 3.4 5.6 3.4.9 0 1.4-.1 2-.3 1-.4 2-1.4 2.5-2.3.3-.7.4-1 .4-2.3 0-2.1-.2-2.4-3.2-5.5-3-3-3.5-3.4-5.4-3.4-1.1 0-1.5 0-2.2.3l-.9.4-1-1-1-1 .8-1.2c1.3-2 1.9-3.8 2-6.3.3-5.8-3.6-11.1-9.4-12.6-1.5-.6-4.1-.6-5.8-.2zm5.6 1.9c1.7.5 3.2 1.4 4.5 2.6 1.3 1.2 2.2 2.7 2.8 4.4.4 1.1.4 1.5.4 3.2 0 1.8 0 2.1-.5 3.3-1.5 4.2-5.1 6.9-9.4 7.1-3.2.1-5.6-.8-7.9-3.1-2.1-2.1-3.1-4.5-3.1-7.3 0-5 3.5-9.2 8.5-10.3 1.1-.4 3.6-.3 4.7.1zm13.1 21.6c.4.2 1.6 1.3 3 2.7 2.1 2.1 2.4 2.5 2.6 3.2.1.5.2 1 .1 1.3-.4 1.9-2.2 3.1-4 2.6-.5-.1-1.2-.7-3.2-2.7-1.4-1.4-2.7-2.8-2.8-3.1-.3-.7-.3-2 0-2.6.3-.6 1.2-1.4 1.7-1.6.7-.2 1.9-.1 2.6.2z"/><path class="st1" d="M57.3 50.1c-2.2.4-4.4 2-5.4 4.1-.5 1-.9 2.5-.9 3.4 0 .4.6.9 1 .9.5 0 .8-.4 1-1.4.2-1.5.7-2.5 1.7-3.6 1-1 2.1-1.5 3.6-1.7 1.2-.2 1.7-.9 1-1.6-.3-.3-.7-.3-2-.1z"/><path class="st1" d="M39 45.7c-.2.1-.3.3-.3.7 0 1 .2 1 4.8 1 3.5 0 4.2 0 4.5-.2.5-.3.5-1.2 0-1.5-.3-.2-8.6-.2-9 0z"/><path class="st1" d="M31.9 56.5c-.1.1-.2 2-.2 8.3 0 7.3 0 8.2.2 8.4.4.4 1.2.2 1.4-.2.3-.6.3-15.7 0-16.2-.2-.4-1.1-.6-1.4-.3z"/><path class="st1" d="M39 57.4c-.4.4-.3 1.2 0 1.4.2.1 1.4.2 2.8.2 2.4 0 2.5 0 2.7-.3.3-.5.3-.8-.1-1.2-.3-.3-.5-.3-2.8-.3-2.1-.1-2.4-.1-2.6.2z"/><path class="st1" d="M26.5 59.4c-.2.2-.2 1.1-.2 6.9 0 7.3 0 7.2.9 7.2 1 0 .9 0 .9-7.2 0-5.6 0-6.5-.2-6.8-.3-.4-1.1-.5-1.4-.1z"/><path class="st1" d="M15.6 62.2c-.2.3-.3.9-.3 5.5 0 5.8 0 5.7.9 5.7s.9-.2.9-5.8c0-4.9 0-5.1-.3-5.4-.3-.3-.9-.3-1.2 0z"/><path class="st1" d="M21.1 64.1c-.3.2-.3.3-.3 4.6 0 4.8 0 4.8.9 4.8s.9-.2.9-4.9c0-4 0-4.2-.3-4.5-.3-.3-.7-.4-1.2 0z"/><path class="st1" d="M39 64.2c-.3.3-.3 1 0 1.4.2.2.7.3 2.7.3 2.2 0 2.5 0 2.8-.3.4-.4.4-.7.1-1.2-.3-.4-.4-.4-2.8-.4-2.1 0-2.6 0-2.8.2z"/><path class="st1" d="M38.9 71c-.1.1-.2.4-.2.7 0 1 .1 1 5.5 1s5.5 0 5.5-1c0-.3-.1-.6-.2-.7-.2-.2-10.3-.2-10.6 0z"/><path class="st1" d="M2.3 74.9c-.4.5-.3 1.4.2 1.8 1 .7 2.3-.6 1.6-1.6-.4-.6-1.4-.7-1.8-.2z"/></g></svg>