<svg version="1.1" id="Слой_1" xmlns="http://www.w3.org/2000/svg" xmlns:xlink="http://www.w3.org/1999/xlink" x="0" y="0" viewBox="0 0 84 84" style="enable-background:new 0 0 84 84" xml:space="preserve"><path class="st1" d="M38.9 1.6c-7.4.8-13.5 2.9-19.1 6.7-1.5 1-3.4 2.5-4.3 3.3-.7.6-.7 1.3-.1 1.9.7.7 1.1.5 2.8-.8 2-1.6 3.2-2.5 5.2-3.6 10.3-6 23-6.6 34.1-1.7 4.3 1.9 9.2 5.4 11.9 8.5l.9 1h-2.8c-2.7 0-2.8 0-3.1.4-.1.1-.2.2-.3.4-.1.2-.1.3-.1.5s0 .3.1.5.2.3.3.4l.4.4h8.7l.4-.4.4-.4V10l-.4-.4c-.1-.1-.2-.2-.4-.3-.2-.1-.3-.1-.5-.1s-.3 0-.5.1-.3.2-.4.3c-.4.4-.4.5-.4 2.7v2.3l-1.9-1.9C63.6 6.9 56.1 3.2 47.6 1.9c-1.6-.2-7.4-.4-8.7-.3z"/><path class="st1" d="M41.1 5.8c-.4.4-.4.5-.4 2.2 0 1.7 0 1.8.4 2.2.1.1.2.2.4.3.2.1.3.1.5.1s.3 0 .5-.1.3-.2.4-.3c.4-.4.4-.5.4-2.2 0-1.7 0-1.8-.4-2.2-.1-.1-.2-.2-.4-.3s-.3-.1-.5-.1-.3 0-.5.1c-.1.1-.3.2-.4.3z"/><path class="st1" d="M12 15.1c-.4.4-1.2 1.4-1.8 2.2-4.1 5.4-6.8 11.8-7.8 18.6-.4 2.5-.5 6.7-.3 9 .3 2.7.6 4.7.9 5.1.3.5.9.6 1.5.4.7-.3.9-.8.6-2.4-.9-5.2-.7-10.6.6-15.7C7.1 27 9.6 22 13.1 17.7c1.4-1.7 1.5-2.2.8-2.8-.5-.7-1.1-.6-1.9.2z"/><path class="st1" d="m41.1 20-.4.4v20.5l-1.3 1.3c-1.1 1.1-1.3 1.4-1.3 1.8 0 1.1 1.3 1.7 2.2.9l.4-.4.4.4c.1.1.3.2.4.3.2.1.3.1.5.1s.3 0 .5-.1c.1-.1.3-.2.4-.3.4-.3.4-.5.4-1.6V42l3.8-3.8c2.1-2.1 3.8-3.9 3.9-4.2.2-.8-.5-1.6-1.4-1.6-.2 0-1.3 1-3.3 2.9l-2.9 2.9v-18l-.5-.2c-.1-.1-.2-.2-.4-.3s-.3-.1-.5-.1-.3 0-.5.1c-.1.1-.3.2-.4.3z"/><path class="st1" d="M79.1 32.8c-.5.5-.6.8-.3 2.2.5 2.6.6 5.2.5 7.8-.2 8.2-3.2 16.2-8.5 22.5-1.4 1.7-1.5 2.2-.8 2.8.2.2.5.4.8.4.3 0 .6-.1.8-.3.2-.1.8-.9 1.4-1.6 4.6-5.8 7.5-12.2 8.6-19.7.5-3.6.3-10.5-.5-13.4-.2-1-1.3-1.4-2-.7z"/><path class="st1" d="M6.3 40.6c-.1.1-.2.3-.3.4-.1.2-.1.3-.1.5s0 .3.1.5.2.3.3.4c.4.4.5.4 2.2.4s1.8 0 2.2-.4c.1-.1.2-.2.3-.4.1-.2.1-.3.1-.5s0-.3-.1-.5-.2-.3-.3-.4c-.4-.4-.5-.4-2.2-.4s-1.8 0-2.2.4z"/><path class="st1" d="M73.4 40.6c-.1.1-.2.2-.3.4-.1.2-.1.3-.1.5s0 .3.1.5.2.3.3.4c.4.4.5.4 2.2.4s1.8 0 2.2-.4c.1-.1.2-.2.3-.4.1-.2.1-.3.1-.5s0-.3-.1-.5-.2-.3-.3-.4c-.4-.4-.5-.4-2.2-.4s-1.9 0-2.2.4z"/><path class="st1" d="m10.2 63.8-.4.4v8.7l.4.4c.1.1.2.2.4.3.2.1.3.1.5.1s.3 0 .5-.1.3-.2.4-.3c.4-.4.4-.5.4-2.7v-2.3l1.8 1.8c4.4 4.4 9.4 7.4 15.4 9.4 8 2.6 17.2 2.6 25.2-.2 5-1.7 10.4-4.9 13.7-8 .7-.6.7-1.3.1-1.9-.7-.7-1.1-.5-2.8.8-10.8 8.9-25.1 11.1-38 5.8-4.5-1.8-8.7-4.7-12.3-8.3L13.8 66l2.9-.1c2.8-.1 2.9-.1 3.2-.5.2-.2.3-.6.3-.9 0-.3-.2-.6-.4-.8l-.4-.4h-8.7l-.5.5z"/><path class="st1" d="M41.1 72.8c-.4.4-.4.5-.4 2.2 0 1.7 0 1.8.4 2.2.1.1.2.2.4.3.2.1.3.1.5.1s.3 0 .5-.1.3-.2.4-.3c.4-.4.4-.5.4-2.2 0-1.7 0-1.8-.4-2.2-.1-.1-.2-.2-.4-.3-.2-.1-.3-.1-.5-.1s-.3 0-.5.1c-.1.1-.3.2-.4.3z"/></svg>