<svg width="28" height="28" fill="none" xmlns="http://www.w3.org/2000/svg"><path d="M9.292 7.236a.959.959 0 0 0-.626.123h-.017c-.437.257-.831.58-1.167.96-.28.324-.432.65-.472.965-.023.187-.007.376.048.555l.021.011c.315.925.726 1.816 1.227 2.653a15.601 15.601 0 0 0 2.369 3.238l.028.04.044.032.027.032.033.028a15.824 15.824 0 0 0 3.245 2.38c1.348.733 2.166 1.08 2.657 1.225v.007c.143.044.274.064.406.064.418-.031.814-.201 1.125-.483.379-.336.7-.732.95-1.171v-.009c.234-.443.154-.86-.184-1.144a14.145 14.145 0 0 0-2.195-1.575c-.522-.284-1.053-.112-1.268.175l-.458.579c-.236.287-.663.247-.663.247l-.011.007c-3.187-.813-4.037-4.04-4.037-4.04s-.04-.438.255-.662l.574-.462c.276-.224.467-.753.172-1.276-.451-.78-.977-1.516-1.572-2.193a.873.873 0 0 0-.513-.307h.002Zm5.385-1.402a.583.583 0 1 0 0 1.166c1.474 0 2.7.482 3.669 1.406a5.172 5.172 0 0 1 1.14 1.76c.256.656.373 1.357.342 2.06a.584.584 0 1 0 1.167.049 6.255 6.255 0 0 0-.421-2.532 6.349 6.349 0 0 0-1.405-2.163l-.011-.012c-1.203-1.149-2.725-1.734-4.482-1.734Z" fill="#000"/><path d="M14.636 7.751a.583.583 0 1 0 0 1.167h.02c1.064.076 1.839.43 2.381 1.013.557.6.845 1.345.823 2.266a.584.584 0 0 0 1.166.027c.028-1.21-.361-2.254-1.134-3.087v-.002c-.79-.847-1.873-1.295-3.178-1.383l-.02-.002-.058.001Z" fill="#000"/><path d="M14.614 9.705a.584.584 0 1 0-.061 1.165c.488.025.8.172.995.37.197.198.344.516.371 1.014a.585.585 0 0 0 1.138.17.582.582 0 0 0 .026-.231c-.037-.7-.256-1.319-.705-1.774-.452-.455-1.067-.676-1.764-.714Z" fill="#000"/><path fill-rule="evenodd" clip-rule="evenodd" d="M8.245 2.782c3.712-.83 7.562-.83 11.274 0l.396.087a6.014 6.014 0 0 1 4.517 4.39 23.005 23.005 0 0 1 0 11.317 6.014 6.014 0 0 1-4.517 4.39l-.397.088c-2.325.52-4.71.715-7.09.582l-3.095 2.77a.875.875 0 0 1-1.447-.508l-.512-3.06a6.015 6.015 0 0 1-4.042-4.262 23.003 23.003 0 0 1 0-11.317 6.014 6.014 0 0 1 4.517-4.39l.396-.087Zm10.893 1.706a24.092 24.092 0 0 0-10.512 0l-.397.09a4.264 4.264 0 0 0-3.2 3.112c-.872 3.43-.872 7.025 0 10.455a4.264 4.264 0 0 0 3.202 3.113l.105.023a.875.875 0 0 1 .672.71l.343 2.05 2.184-1.953a.873.873 0 0 1 .645-.222c2.332.165 4.676-.01 6.958-.52l.395-.088a4.264 4.264 0 0 0 3.203-3.113c.87-3.43.87-7.024 0-10.455a4.265 4.265 0 0 0-3.203-3.113l-.395-.089Z" fill="#000"/></svg>