<svg width="80" height="80" fill="none" xmlns="http://www.w3.org/2000/svg"><path d="M18.984 8.25c-1.125.39-1.968.922-3.75 2.328-3.421 2.734-5.015 4.39-5.984 6.266-.828 1.593-1.125 2.89-1.125 4.812 0 2.86.516 4.36 3.438 10.297 4.203 8.516 8.765 14.938 15.156 21.328 6.39 6.406 13.265 11.266 21.781 15.406 5.906 2.86 7.734 3.438 10.547 3.313 3.812-.172 6.297-1.844 10.328-6.922 2.203-2.766 2.422-3.281 2.422-5.469 0-1.61-.031-1.78-.5-2.78-.75-1.563-1.875-2.61-4.5-4.126C62.39 50.172 55.359 46.36 54.437 46c-3.718-1.39-6.734.25-7.78 4.25-.36 1.422-1.235 2-2.438 1.64-1.547-.453-10.125-8.468-13.89-12.984-1.954-2.344-2.438-3.187-2.298-3.984.11-.594.828-1.281 1.469-1.422 2.188-.484 3.688-1.453 4.484-2.89.438-.782.47-.954.47-2.485 0-2.016-.204-2.547-2.22-5.813-.765-1.25-2.125-3.671-3.015-5.375-2.813-5.453-3.157-6.015-4.157-7.046-1.296-1.329-2.375-1.829-4.046-1.875-.891-.047-1.47.03-2.032.234Zm3 2.86c1.078.53 1.766 1.5 3.953 5.75 1.141 2.202 2.672 4.984 3.407 6.187.734 1.203 1.547 2.594 1.812 3.094.563 1.125.703 2.343.344 3.046-.297.579-1.281 1.188-2.36 1.454-1.234.296-2.046.734-2.718 1.468-.906.985-1.156 1.657-1.172 3.125-.031 2.016.594 3 4.86 7.75 3.796 4.25 10.609 10.407 12.546 11.36 1.172.562 2.969.593 4.14.062 1.423-.656 2.079-1.484 2.563-3.234.375-1.344.985-2.328 1.641-2.64.656-.313.922-.313 1.984 0 1.375.405 13.86 7.359 14.813 8.234 1.172 1.109 1.61 3.062.969 4.296-.391.75-2.61 3.516-4.063 5.063-2.516 2.687-5.047 3.578-8.094 2.86-1.953-.454-7.922-3.235-12.062-5.61-8.89-5.11-16.86-12.188-22.906-20.328-3.61-4.844-7.047-10.844-9.422-16.406-1.11-2.594-1.328-3.547-1.25-5.407.047-1.406.11-1.61.719-2.843.515-1.032.937-1.61 1.874-2.547 1.485-1.485 4.985-4.297 5.86-4.735a2.847 2.847 0 0 1 2.562 0Z"/></svg>